<?xml version="1.0" encoding="UTF-8"?>
<svg id="Layer_1" data-name="Layer 1" xmlns="http://www.w3.org/2000/svg" viewBox="0 0 218.31 203.96">
  <defs>
    <style>
      .cls-1 {
        fill: #f89d4b;
      }

      .cls-2 {
        fill: #f99d49;
      }

      .cls-3 {
        fill: #6d311a;
      }

      .cls-4 {
        fill: #6d311b;
      }

      .cls-5 {
        fill: #6f331c;
      }

      .cls-6 {
        fill: #faafa3;
      }

      .cls-7 {
        fill: #f9aea1;
      }

      .cls-8 {
        fill: #fcfbfa;
      }

      .cls-9 {
        fill: #f79b49;
      }
    </style>
  </defs>
  <path class="cls-8" d="M162.26,35.56l-4.59-3.53-4.58,4.49-14.36-12.28c-1.48.23-3.83,2.39-4.2,3.3l-5.61-3.56-13.6,14.94,3.89,5.52-3.35,3.96,15.3,13.59,4.19,3.77-4.25,5.02,4.83,4.3-3.79,5.66-5.24-4.31c-.96.88-2.67,2.8-3.45,3.92l-5.87-3.82-5,4.06-4.33-3.67-26.99,29.75,4.39,4.32-3.88,4.89,4.57,4.8-3.75,4.52,3.92,5.49-3.48,3.98,14.49,13.04,3.34-4.35,5.71,3.46c1.23.75,3.55-2.12,3.91-3.52l1.82-.1c.73,1.03,2.54,3.07,3.68,3.55s3.1-2.34,3.52-3.18l2.35-.16,3.75,3.31,26.72-29.52-4.75-4.35,1.14-1.33,3.17-3.66,9.63,8.88,4.08-4.36,4.68,2.31c1.27.63,3.99-1.42,5.64-2.93l4.92,3.81,4.49-4.49,4.66,3.88,4.57-5.01,4.09,4.49-3.53,4.45,3.8,4.89-48.62,53.71c-1.61-1.37-3.61-2.68-5.51-3.26l-12.41,14.23-.73-.24-4.18-4.35-4.89,4.83-3.46-4.97,3.97-4.58-8.87-8.04c-1.15-1.04-4.43,1.4-5.21,3.19l-6.06-3.06c-1.31,1.53-2.89,3.61-4.04,3.47s-2.94-1.67-4.67-3.02l-4.75,4.06-9.79-8.79-4.47,4.61-4.62-4.04-4.67,5.11-5.01-4.17-3.5,4.11-5.91-3.92c-.67.34-2.66,2.36-4.52,4.4l-28.69-25.94,3.42-4.5,4.61-4.61,5.32,3.27c2.4-2.06,3.98-3.07,5.65-3.1l2.3,2.83c.25.3-.23,1.6-.28,1.64l-2.62,4.43,13.34,11.83c1.26.9,4.49-2.08,4.5-3.17l1.18-.99c1.02,1.49,3.04,3.39,4.32,3.78s3.44-1.9,4.42-2.99l9.75-10.85-5.09-4.95,3.89-4.84-14.94-13.41-4.36,4.08-4.9-3.56-4.71,4.8-3.86-4.39,4.13-4.49-4.24-4.17,3.66-4.8,4.95,3.99,18.33-20.3-4.52-4.25,3.78-4.89-19.56-17.75-4.56,4.45-4.77-4.1-18.08,20.17,4.22,4.62-3.77,5,4.8,4.39-4.64,3.85-4.55-4.01-4.11,4.76-4.59-4.24,4.18-4.9-4.63-4.1,4.07-4.93-5.06-4.68,26.07-28.86,5.26,4.4,5.08-4.77,4.81,3.96,4.5-5.07-4.76-4.16,4.36-5.22-4.83-4.99,17.22-19.33,9.21,9.7-13.14,14.65,4.53,4.56-3.84,4.73,19.71,17.92,4.29-4.75,4.95,4.09,18.2-20.23-4.44-4.58,4.16-4.61-9.24-8.37,12.77-15.46,8.33-10.2.59.21,4.66,5.32,4.34-4.63,4.68,4.05,4.98-5.1,28.67,25.94-4.19,4.28Z"/>
  <path class="cls-4" d="M205.99,127.41c.08,1.56,1.55,3.23,3.71,5.34l-49.24,54.55-4.87-4.18-13.43,14.73-4.7-4.22-8.66,9.28-5.5-4.55-4.52,5.21-4.83-3.93-4.58,4.31-33.61-30.47-4.5,4.59-5.28-4.67-4.52,4.51-3.78-3.6c-.28-.26-.24-1.42-.21-1.74l3.5-4.11,5.01,4.17,4.67-5.11,4.62,4.04,4.47-4.61,9.79,8.79,24.74,22.46,4.74-4.45,4.21,4.29,8.47-9.81.73.24,5.11,4.48,13.2-14.68,5.1,4.03,48.9-54.23,1.28-.66Z"/>
  <path class="cls-4" d="M71.71,7.66l-8.67,10.37-17.22,19.33,4.83,4.99-4.36,5.22,4.76,4.16-4.5,5.07-4.81-3.96-5.08,4.77-5.26-4.4-26.07,28.86,5.06,4.68-4.07,4.93,4.63,4.1-4.18,4.9,4.59,4.24,8.86,8.43c1.44,1.37-2.28,5.91-4.24,5.48l-14.6-12.58,3.36-5.36-4.14-4.44,4.37-5.12-4.45-4.35,4.08-4.97-4.6-4.13,27.06-30.1,4.78,4.27,4.11-4.56,5.28,4.15,3.48-4.6-4.33-4.18,4.08-4.58-4.41-4.61L67.11,3.8l4.59,3.86Z"/>
  <path class="cls-1" d="M24.65,100.3l15.53,13.46,4.24,4.17-4.13,4.49,3.86,4.39-5.31,6.04c-1.39,1.58-2.55,4.05-1.51,5.33-1.67.03-3.25,1.04-5.65,3.1l-5.32-3.27-4.61,4.61-4.17-4.62,4.25-4.8-4.03-4.08c-.25-2.53,3.66-3.13,2.87-6.89-.21-.99-2.64-2.42-3.46-1.84l-2.72,1.93-1.39,1c-.21.15-.26-.11-.48-.66l3.33-3.87c1.96.43,5.68-4.11,4.24-5.48l-8.86-8.43,4.11-4.76,4.55,4.01,4.64-3.85Z"/>
  <polygon class="cls-9" points="110.22 15.68 97.45 31.14 86.85 21.53 82.41 26.13 77.42 21.97 72.25 27.72 63.04 18.03 71.71 7.66 72.1 7.93 76.45 12.96 81.08 8.19 86.36 12.74 90.53 8.07 100.14 16.57 105.03 11.46 110.22 15.68"/>
  <path class="cls-5" d="M21.76,142.62l-3.42,4.5,28.69,25.94c1.85-2.04,3.84-4.06,4.52-4.4l5.91,3.92c-.04.32-.07,1.48.21,1.74l-5.77,4.38-4.51-3.69-4.6,4.2-29.71-26.87,4-5.27-5.41-2.87,5.29-6.39-4.53-4.37,4.13-4.58-4.13-4.03c-.21-.2-.83-1.5-.59-1.66l.81-.51c.22.55.27.81.48.66l1.39-1,2.72-1.93c.82-.58,3.25.85,3.46,1.84.79,3.76-3.12,4.36-2.87,6.89l4.03,4.08-4.25,4.8,4.17,4.62Z"/>
  <path class="cls-3" d="M168.83,42.63l3.46,3.29-4.04,4.78,44.09,39.96c-2.33,2.62-3.51,4.2-3.43,5.76l-1.57-.91-43.96-40,4.11-4.62-4.51-4.71,3.98-4.04c.49.08,1.56.19,1.86.48Z"/>
  <path class="cls-5" d="M168.83,42.63c-.3-.28-1.37-.39-1.86-.48l-4.71-6.6,4.19-4.28-28.67-25.94-4.98,5.1-4.68-4.05-4.34,4.63-4.66-5.32,3.41-4.11c1-1.05,4.14,1.32,5.42,2.88l3.8-3.98,6.05,3.79,4.18-4.26,29.37,26.35-4.02,5.15,4.78,4.49-3.3,6.63Z"/>
  <polygon class="cls-5" points="118.54 5.48 110.22 15.68 105.03 11.46 100.14 16.57 90.53 8.07 86.36 12.74 81.08 8.19 76.45 12.96 72.1 7.93 76.14 3.27 81.12 7.35 85.22 2.93 90.65 7.19 95.51 2.28 104.95 10.85 113.54 1.39 118.54 5.48"/>
  <path class="cls-5" d="M208.91,96.44l9.09,7.85-4.08,4.74,4.38,4.76-12.32,13.62-1.28.66-4.57-3.76,12.3-13.81c-1.04-2.06-3.25-4.11-4.52-5.33l-4.75-4.55,4.18-5.11,1.57.91Z"/>
  <path class="cls-2" d="M162.26,35.56l4.71,6.6-3.98,4.04,4.51,4.71-4.11,4.62,43.96,40-4.18,5.11,4.75,4.55-9.24,9.27-4.09-4.49-4.57,5.01-4.66-3.88-4.49,4.49-4.92-3.81c-1.65,1.5-4.37,3.55-5.64,2.93l-4.68-2.31-4.08,4.36-9.63-8.88-4.27-4.69,4.22-5.22-4.56-4.45,3.64-5.5-15-12.91-4.83-4.3,4.25-5.02-4.19-3.77,3.94-4.65,5.16,3.84,13.35-14.82-4.49-4.55,3.97-5.29,4.58-4.49,4.59,3.53Z"/>
  <path class="cls-9" d="M148.73,111.52l-1.14,1.33-24.24,26.7c-.93,1.03-1.81,3.25-1.48,3.86l-2.35.16-3.42-5.42-3.79,5.05-1.82.1-4.1-4.78-5.74,4.29-12.68-12.3,3.94-5.42,14.19,12.4,4.43-4.42,5.35,4.73,8.74-9.77-4.4-4.44,3.86-4.9-5.01-4.63,4.38-4.99,4.79,4.03,5.16-4.72,4.62,3.79c1.01.64,4.11-3.03,3.45-4.26-.58-1.08-1.91-2.22-4.09-4.33l4.15-4.77-14.12-13.19,4.64-4.79,14.24,12.93-4.08,4.81,4.87,4.92-3.99,4.77c1.12,1.09,3.83,3.04,5.6,3.25Z"/>
  <path class="cls-7" d="M204.71,128.07l-48.9,54.23-5.1-4.03-13.2,14.68-5.11-4.48,12.41-14.23c1.9.58,3.9,1.89,5.51,3.26l48.62-53.71-3.8-4.89,3.53-4.45,9.24-9.27c1.27,1.22,3.48,3.27,4.52,5.33l-12.3,13.81,4.57,3.76Z"/>
  <path class="cls-3" d="M97.45,31.14l9.24,8.37-4.16,4.61,4.44,4.58-18.2,20.23-4.95-4.09-4.29,4.75-19.71-17.92,3.84-4.73-4.53-4.56,13.14-14.65,5.17-5.75,4.98,4.16,4.45-4.6,10.6,9.6ZM84.29,64.34l18.33-20.22-20.08-18.2-18.33,20.22,20.08,18.2Z"/>
  <path class="cls-3" d="M40.18,113.77l-15.53-13.46-4.8-4.39,3.77-5-4.22-4.62,18.08-20.17,4.77,4.1,4.56-4.45,19.56,17.75-3.78,4.89,4.52,4.25-18.33,20.3-4.95-3.99-3.66,4.8ZM43.82,109.06l18.23-20.17-20.08-18.16-18.23,20.17,20.08,18.16Z"/>
  <path class="cls-1" d="M122.61,188.71l-3.6,5.04-4.74,4.45-24.74-22.46,4.75-4.06c1.74,1.35,3.52,2.87,4.67,3.02s2.72-1.94,4.04-3.47l6.06,3.06c.77-1.79,4.06-4.23,5.21-3.19l8.87,8.04-3.97,4.58,3.46,4.97Z"/>
  <path class="cls-3" d="M153.1,36.52l-3.97,5.29,4.49,4.55-13.35,14.82-5.16-3.84-3.94,4.65-15.3-13.59,3.35-3.96,1.6.06,4.44,3.33,9.79,9.32,13.86-15.16-10.06-9.02-4.44-4.36.13-1.07c.37-.91,2.73-3.08,4.2-3.3l14.36,12.28Z"/>
  <polygon class="cls-4" points="112.6 80.58 112.69 81.43 86.37 110.57 91.56 115.21 87.13 120.9 91.92 125.08 87.97 130.5 86.53 130.69 82.61 125.2 86.36 120.67 81.79 115.87 85.67 110.98 81.28 106.66 108.27 76.91 112.6 80.58"/>
  <path class="cls-3" d="M151.9,107.86l-3.17,3.66c-1.78-.22-4.49-2.16-5.6-3.25l3.99-4.77-4.87-4.92,4.08-4.81-14.24-12.93-4.64,4.79-4.05-4.1c0-.27-.03-1.01.08-1.17.78-1.12,2.49-3.04,3.45-3.92l5.24,4.31,3.79-5.66,15,12.91-3.64,5.5,4.56,4.45-4.22,5.22,4.27,4.69Z"/>
  <path class="cls-5" d="M55.77,154.75l13.12-14.92-9.87-8.87-5.37-3.63.11-1.76,4.36-4.08,14.94,13.41-3.89,4.84,5.09,4.95-9.75,10.85c-.98,1.09-3.14,3.38-4.42,2.99s-3.3-2.29-4.32-3.78Z"/>
  <path class="cls-3" d="M147.59,112.85l4.75,4.35-26.72,29.52-3.75-3.31c-.32-.61.55-2.83,1.48-3.86l24.24-26.7Z"/>
  <path class="cls-9" d="M55.77,154.75l-1.18.99-1.57-2.72-7.61-7.32,5.48-4.51c1.91,2.02,3.68,3.73,4.93,3.3s3.94-3.52,3.08-4.52l-3.49-4.04,3.6-4.98,9.87,8.87-13.12,14.92Z"/>
  <path class="cls-7" d="M59.01,130.95l-3.6,4.98,3.49,4.04c.86,1-1.83,4.1-3.08,4.52s-3.02-1.28-4.93-3.3l-5.48,4.51c-1.49-1.43-4.12-2.94-6.05-3.06.04-.04.52-1.33.28-1.64.52.36,2.52-.73,3.15-1.45l10.86-12.24,5.37,3.63Z"/>
  <path class="cls-3" d="M53.76,125.57l-.11,1.76-10.86,12.24c-.64.72-2.63,1.81-3.15,1.45l-2.3-2.83c-1.04-1.28.12-3.76,1.51-5.33l5.31-6.04,4.71-4.8,4.9,3.56Z"/>
  <path class="cls-5" d="M134.54,27.54l-.13,1.07-11.86,11.85c-.8.85-1.92,3.22-1.73,4.05l-1.6-.06-3.89-5.52,13.6-14.94,5.61,3.56Z"/>
  <path class="cls-5" d="M45.4,145.71l7.61,7.32,1.57,2.72c0,1.09-3.24,4.06-4.5,3.17l-13.34-11.83,2.62-4.43c1.93.12,4.56,1.63,6.05,3.06Z"/>
  <polygon class="cls-3" points="100.66 142.8 100.88 143.36 97.54 147.71 83.05 134.67 86.53 130.69 87.97 130.5 100.66 142.8"/>
  <polygon class="cls-7" points="131.68 188.23 123.21 198.05 119 193.76 122.61 188.71 127.5 183.89 131.68 188.23"/>
  <path class="cls-5" d="M123.47,80.35c-.12.17-.08.9-.08,1.17l-5.03,4.08-5.67-4.17-.09-.85,5-4.06,5.87,3.82Z"/>
  <path class="cls-5" d="M110.5,143.3c-.36,1.4-2.67,4.27-3.91,3.52l-5.71-3.46-.22-.55,5.74-4.29,4.1,4.78Z"/>
  <path class="cls-5" d="M119.52,143.57c-.42.83-2.38,3.66-3.52,3.18s-2.95-2.52-3.68-3.55l3.79-5.05,3.42,5.42Z"/>
  <path class="cls-6" d="M123.39,81.52l4.05,4.1,14.12,13.19-4.15,4.77c2.18,2.1,3.51,3.24,4.09,4.33.66,1.24-2.44,4.9-3.45,4.26l-4.62-3.79-5.16,4.72-4.79-4.03-4.38,4.99,5.01,4.63-3.86,4.9,4.4,4.44-8.74,9.77-5.35-4.73-4.43,4.42-14.19-12.4-4.79-4.19,4.44-5.68-5.2-4.65,26.32-29.13,5.67,4.17,5.03-4.08Z"/>
  <polygon class="cls-7" points="92.3 34.77 87.28 40.41 91.94 45.39 83.66 54.6 78.39 49.97 74.15 55.15 64.21 46.14 82.54 25.92 92.3 34.77"/>
  <polygon class="cls-9" points="74.15 55.15 78.39 49.97 83.66 54.6 91.94 45.39 87.28 40.41 92.3 34.77 102.61 44.12 84.29 64.34 74.15 55.15"/>
  <polygon class="cls-7" points="52.05 79.84 47.08 84.7 52.05 89.42 43.87 98.62 38.68 94.34 32.5 98.82 23.73 90.9 41.97 70.73 52.05 79.84"/>
  <polygon class="cls-9" points="32.5 98.82 38.68 94.34 43.87 98.62 52.05 89.42 47.08 84.7 52.05 79.84 62.05 88.89 43.82 109.06 32.5 98.82"/>
  <polygon class="cls-9" points="125.26 47.83 129.98 43.72 134.71 47.82 139.75 42.43 135.3 38.27 138.85 32.97 148.91 41.99 135.05 57.15 125.26 47.83"/>
  <path class="cls-7" d="M138.85,32.97l-3.55,5.3,4.46,4.16-5.04,5.4-4.73-4.1-4.73,4.11-4.44-3.33c-.19-.83.93-3.19,1.73-4.05l11.86-11.85,4.44,4.36Z"/>
</svg>